<svg width="133" height="23" viewBox="0 0 133 23" fill="none" xmlns="http://www.w3.org/2000/svg">
<g clip-path="url(#clip0_695_25660)">
<g clip-path="url(#clip1_695_25660)">
<path d="M20.654 0H0V20.654H20.654V0Z" fill="white"/>
<path d="M65.3203 1.77098H67.0821V18.1171H65.3203V1.77098ZM85.3671 5.94088C84.0446 5.94088 82.9682 6.46528 82.0873 7.58538C81.1673 8.77678 80.7648 10.0625 80.7648 12.0635C80.7648 15.9965 82.5933 18.377 85.6316 18.377C87.0114 18.3906 88.3409 17.8601 89.3323 16.9004L88.6699 15.709C88.3241 16.0713 87.9067 16.3578 87.4442 16.5502C86.9817 16.7427 86.4843 16.8368 85.9835 16.8268C84.8818 16.8268 83.8698 16.399 83.2534 15.3755C82.8785 14.7568 82.7474 13.8989 82.7474 12.7788V12.4913H89.5853V12.2291C89.5439 9.39548 89.2771 8.27538 88.3318 7.22658C87.9568 6.81218 87.4973 6.483 86.9843 6.26121C86.4713 6.03942 85.9167 5.93019 85.3579 5.94088H85.3671ZM82.7382 11.086C82.8256 8.63188 83.7065 7.39448 85.2682 7.39448C85.6605 7.38348 86.049 7.47405 86.3959 7.65741C86.7429 7.84076 87.0366 8.11068 87.2485 8.44098C87.5797 9.01368 87.7338 9.80028 87.7568 11.086H82.7382ZM99.7467 7.72798C99.9227 8.16672 100.012 8.63526 100.011 9.10798V18.1171H98.2701V10.0855C98.2701 8.82278 98.1827 8.51458 97.8745 8.10978C97.7217 7.94231 97.5339 7.81056 97.3244 7.7239C97.1149 7.63724 96.8889 7.5978 96.6624 7.60838C95.7815 7.60838 94.4176 8.37198 93.6241 9.27588V18.1171H91.9497V8.96998C91.9497 7.27718 91.5334 6.46758 91.5334 6.46758L93.2055 5.96618C93.4553 6.55333 93.5926 7.18216 93.6103 7.81998C94.7603 6.58258 95.8965 5.97998 97.0603 5.97998C97.6305 5.97421 98.1897 6.13704 98.6677 6.44804C99.1456 6.75904 99.521 7.20433 99.7467 7.72798ZM104.747 6.27438H107.578L107.052 7.67968H104.68V15.3272C104.68 16.6382 105.009 17.0913 106.09 17.0913C106.573 17.0913 106.447 17.0913 106.755 16.9303L106.999 18.1217C106.549 18.4224 106.011 18.5626 105.471 18.5196C104.974 18.5298 104.483 18.416 104.041 18.1884C103.27 17.7836 102.983 17.02 102.983 15.8286V7.67968H101.552V6.27438H102.983V1.78018H104.747V6.27438ZM78.5269 1.75488H76.8088V5.70398C76.8088 6.55958 76.8295 7.54398 76.8295 7.54398C76.4953 7.06939 76.0493 6.68435 75.5311 6.42283C75.0129 6.16131 74.4382 6.03134 73.8579 6.04438C73.0886 6.03494 72.3404 6.29627 71.7442 6.78268C70.2446 7.90048 69.4764 9.75888 69.4764 12.2843C69.4764 16.0724 71.1048 18.2873 73.9453 18.2873C75.2241 18.2873 76.0613 17.8848 76.8525 16.9073C76.8771 17.322 76.9583 17.7314 77.094 18.124H78.8581C78.6143 17.434 78.5269 16.3346 78.5269 14.2876V1.75488ZM76.7881 15.0949C76.6395 15.4274 76.414 15.7198 76.1303 15.9482C75.4242 16.4956 74.9182 16.7095 74.0166 16.7095C73.0046 16.7095 72.3215 16.3047 71.8155 15.3295C71.4613 14.6395 71.3739 13.6137 71.3739 12.2314C71.3739 10.5639 71.5487 9.70138 72.0777 8.80208C72.2725 8.42715 72.5668 8.11312 72.9283 7.89443C73.2898 7.67575 73.7045 7.56086 74.127 7.56238C75.4242 7.56238 76.243 7.96948 76.7927 8.80208L76.7881 15.0949ZM129.826 6.25598L126.059 18.5426C125.309 20.93 124.43 22.4986 122.512 23L122.006 21.7373C123.078 21.3739 123.639 20.8449 124.108 19.5546C123.931 18.6185 123.832 18.2114 123.832 18.2114C123.701 17.4478 123.106 15.1363 122.733 13.9472L120.373 6.51358L122.073 5.89258L124.318 13.5884C124.649 14.7085 124.978 16.5416 124.978 16.5416H125.024C125.024 16.5416 125.44 15.019 125.714 14.0415L127.871 6.25138L129.826 6.25598ZM131.31 15.9551C131.31 15.5411 131.08 15.3778 130.62 15.3778H129.93V17.3443H130.275V16.4933H130.484L130.965 17.3397H131.33L130.834 16.4795C130.9 16.4789 130.966 16.4643 131.027 16.4368C131.088 16.4092 131.143 16.3693 131.187 16.3195C131.232 16.2697 131.265 16.2112 131.286 16.1477C131.307 16.0841 131.314 16.017 131.307 15.9505L131.31 15.9551ZM130.279 16.2196V15.6515H130.587C130.765 15.6515 130.965 15.6906 130.965 15.9206C130.965 16.1851 130.788 16.215 130.583 16.215L130.279 16.2196ZM130.564 14.6349C130.217 14.6151 129.872 14.6999 129.574 14.8784C129.276 15.0569 129.038 15.3208 128.891 15.636C128.744 15.9512 128.696 16.3031 128.751 16.6463C128.807 16.9895 128.964 17.308 129.203 17.5608C129.442 17.8135 129.751 17.9888 130.09 18.064C130.43 18.1392 130.784 18.1107 131.107 17.9823C131.43 17.854 131.707 17.6316 131.902 17.3439C132.097 17.0563 132.202 16.7167 132.202 16.3691C132.215 15.9211 132.05 15.4862 131.742 15.1602C131.435 14.8341 131.01 14.6435 130.562 14.6303L130.564 14.6349ZM130.564 17.7652C129.874 17.7652 129.327 17.1787 129.327 16.3691C129.327 15.5595 129.879 14.9707 130.564 14.9707C131.25 14.9707 131.804 15.5572 131.804 16.3691C131.804 17.181 131.248 17.7606 130.562 17.7606L130.564 17.7652ZM116.442 7.65668V15.3042C116.442 16.6152 116.774 17.0683 117.85 17.0683C118.335 17.0683 118.209 17.0683 118.517 16.905L118.761 18.0964C118.311 18.398 117.773 18.5382 117.234 18.4943C116.737 18.5067 116.246 18.3952 115.803 18.17C115.033 17.7652 114.747 17.0039 114.747 15.8102V7.65668H113.314V6.25138H114.747V1.75488H116.509V6.25138H119.269L118.74 7.65668H116.442ZM109.45 6.27668L111.233 5.97998V18.1171H109.45V6.27668Z" fill="white"/>
<path d="M32.9013 3.0958C32.0618 2.5944 31.2913 2.3207 28.7452 2.3207H24.8076V18.1539H27.8298V12.3234H29.4881C31.1441 12.3234 31.7881 12.1394 32.4781 11.799C34.1134 10.9779 35.0587 9.292 35.0587 7.199C35.0518 5.3728 34.2997 3.91 32.9013 3.0958ZM31.3925 8.9056C30.9854 9.5657 30.6197 9.7244 29.3915 9.7244H27.8298V4.8944H29.7434C31.0153 4.8944 31.7674 5.7845 31.7674 7.2634C31.7582 8.0155 31.6524 8.4732 31.3925 8.9056ZM35.9373 3.2775C35.9256 2.7862 36.1094 2.31034 36.4484 1.95452C36.7874 1.59871 37.2538 1.39206 37.7451 1.38C38.7134 1.38 39.4885 2.2218 39.4885 3.2706C39.5061 3.51453 39.4732 3.75945 39.3919 3.99011C39.3107 4.22076 39.1827 4.4322 39.0161 4.61123C38.8495 4.79026 38.6478 4.93304 38.4236 5.03068C38.1994 5.12831 37.9575 5.1787 37.7129 5.1787C37.4684 5.1787 37.2264 5.12831 37.0022 5.03068C36.778 4.93304 36.5763 4.79026 36.4097 4.61123C36.2431 4.4322 36.1152 4.22076 36.0339 3.99011C35.9526 3.75945 35.9197 3.51453 35.9373 3.2706V3.2775ZM36.2616 6.693L39.1435 6.21V18.1539H36.2616V6.693ZM57.4216 15.1708L55.8714 15.1478C55.5701 15.1478 55.3976 15.0328 55.3976 14.8741C55.3976 14.5544 55.807 14.283 56.5476 13.9173C56.6903 13.9344 56.834 13.9421 56.9777 13.9403C59.3237 13.9403 61.0487 12.4798 61.0487 10.4765C61.0674 9.78173 60.8374 9.10311 60.4001 8.5629C60.6498 8.60236 60.9018 8.62541 61.1545 8.6319C61.5342 8.63973 61.9111 8.56643 62.2601 8.41689C62.6092 8.26736 62.9223 8.04504 63.1785 7.7648L61.9733 5.8282C61.369 6.44198 60.5525 6.80086 59.6917 6.831C59.2307 6.80468 58.7747 6.72045 58.3347 6.5803C57.6892 6.39412 57.0216 6.2951 56.3498 6.2859C53.53 6.2859 51.7015 7.8338 51.7015 10.2258C51.7015 11.9577 52.4743 13.0295 54.0682 13.4619C52.2581 13.961 52.0442 14.6694 52.0442 15.4215C52.0442 16.2196 52.3662 16.7417 52.8837 16.9464C53.4012 17.1511 54.2407 17.2868 55.531 17.3121L56.7569 17.3351C57.9069 17.3581 58.7809 17.6778 58.7809 18.7151C58.7725 18.9563 58.7032 19.1915 58.5793 19.3986C58.4554 19.6057 58.2811 19.7781 58.0725 19.8996C57.6125 20.1963 56.9961 20.286 56.2647 20.286C54.9307 20.286 54.1947 19.7846 54.1947 18.8508C54.1808 18.5944 54.2248 18.3381 54.3235 18.101H51.6555C51.4713 18.4679 51.3827 18.8753 51.3979 19.2855C51.3968 19.6744 51.4766 20.0592 51.6322 20.4156C51.7878 20.7719 52.0158 21.092 52.3018 21.3555C53.2908 22.3353 54.9054 22.609 56.4763 22.609C58.1967 22.609 59.8573 22.1996 60.8233 21.1048C61.4219 20.446 61.7396 19.5794 61.7088 18.6898C61.7088 17.641 61.4052 16.8498 60.7612 16.2081C59.9815 15.4652 59.1098 15.1938 57.4216 15.18V15.1708ZM54.6018 10.2488C54.6018 9.1563 55.2251 8.5169 56.3222 8.5169C57.4193 8.5169 58.0679 9.1563 58.0679 10.2488C58.0679 11.3413 57.4423 11.9117 56.3015 11.9117C55.2895 11.9117 54.6018 11.4333 54.6018 10.2488ZM46.377 8.8688C45.7974 8.8688 45.043 9.2805 44.376 9.9153V18.1539H41.4918V9.7014C41.5067 8.77508 41.3755 7.8522 41.1031 6.9667L43.6653 6.1939C43.9193 6.63906 44.0599 7.13983 44.0747 7.6521C44.4799 7.33748 44.9038 7.04791 45.3443 6.785C45.9557 6.46457 46.6344 6.29353 47.3246 6.2859C48.5528 6.2859 49.6246 6.9759 49.9719 7.9718C50.1385 8.50968 50.2116 9.07212 50.1881 9.6347V18.1447H47.3453V10.58C47.3453 9.246 47.1314 8.8596 46.377 8.8596V8.8688Z" fill="white"/>
</g>
</g>
<defs>
<clipPath id="clip0_695_25660">
<rect width="132.199" height="23" fill="white"/>
</clipPath>
<clipPath id="clip1_695_25660">
<rect width="132.199" height="23" fill="white"/>
</clipPath>
</defs>
</svg>
